{"accessors":[{"bufferView":2,"componentType":5126,"count":8349,"max":[0.3416334092617035,0.4851013720035553,0.044601041823625565],"min":[-0.34160950779914856,-0.5060420036315918,-2.2165477275848389e-7],"type":"VEC3"},{"bufferView":2,"byteOffset":100188,"componentType":5126,"count":8349,"max":[1,1,1],"min":[-1,-1,-1],"type":"VEC3"},{"bufferView":1,"componentType":5126,"count":8349,"max":[1.0000001192092896,1.0000004768371582],"min":[0,-4.850775597170509e-12],"type":"VEC2"},{"bufferView":0,"componentType":5125,"count":32205,"type":"SCALAR"},{"bufferView":2,"byteOffset":200376,"componentType":5126,"count":60,"max":[-0.17402729392051697,0.4851013720035553,0.02635236456990242],"min":[-0.3408564329147339,-0.0784078910946846,0.007128958590328693],"type":"VEC3"},{"bufferView":2,"byteOffset":201096,"componentType":5126,"count":60,"max":[1,1,0.0000032070292945718393],"min":[0,-7.061809981223632e-8,0],"type":"VEC3"},{"bufferView":1,"byteOffset":66792,"componentType":5126,"count":60,"max":[0,0],"min":[0,0],"type":"VEC2"},{"bufferView":0,"byteOffset":128820,"componentType":5125,"count":168,"type":"SCALAR"},{"bufferView":2,"byteOffset":201816,"componentType":5126,"count":2716,"max":[0.19179540872573853,0.4810577929019928,0.044356875121593475],"min":[-0.28555700182914734,-0.5054377317428589,-2.2165477275848389e-7],"type":"VEC3"},{"bufferView":2,"byteOffset":234408,"componentType":5126,"count":2716,"max":[1,1,1],"min":[-1,-1,-1],"type":"VEC3"},{"bufferView":1,"byteOffset":67272,"componentType":5126,"count":2716,"max":[0,0],"min":[0,0],"type":"VEC2"},{"bufferView":0,"byteOffset":129492,"componentType":5125,"count":8142,"type":"SCALAR"},{"bufferView":2,"byteOffset":267000,"componentType":5126,"count":1120,"max":[0.19179540872573853,0.4765888452529907,0.034975193440914154],"min":[-0.2783609926700592,-0.5015138387680054,0.012691064737737179],"type":"VEC3"},{"bufferView":2,"byteOffset":280440,"componentType":5126,"count":1120,"max":[6.311961442406755e-7,1,0.000007210040166683029],"min":[0,-1,-1],"type":"VEC3"},{"bufferView":1,"byteOffset":89000,"componentType":5126,"count":1120,"max":[0.8996441960334778,0.8991937637329102],"min":[0.10035574436187744,0.1003057062625885],"type":"VEC2"},{"bufferView":0,"byteOffset":162060,"componentType":5125,"count":3150,"type":"SCALAR"},{"bufferView":2,"byteOffset":293880,"componentType":5126,"count":544,"max":[-0.2665851414203644,0.35256490111351013,0.0349045991897583],"min":[-0.2855288088321686,0.33362123370170593,0.034466519951820374],"type":"VEC3"},{"bufferView":2,"byteOffset":300408,"componentType":5126,"count":544,"max":[1,1,1],"min":[-1,-1,0],"type":"VEC3"},{"bufferView":1,"byteOffset":97960,"componentType":5126,"count":544,"max":[0,0],"min":[0,0],"type":"VEC2"},{"bufferView":0,"byteOffset":174660,"componentType":5125,"count":1626,"type":"SCALAR"},{"bufferView":2,"byteOffset":306936,"componentType":5126,"count":239,"max":[0.3352815806865692,0.4755505323410034,8.437782526016235e-7],"min":[-0.3352576792240143,-0.49969014525413513,-2.218533410314194e-7],"type":"VEC3"},{"bufferView":2,"byteOffset":309804,"componentType":5126,"count":239,"max":[0.00007210357580333948,0.00012347334995865822,-1],"min":[-0.00008213131513912231,-0.00012945955677423626,-1],"type":"VEC3"},{"bufferView":1,"byteOffset":102312,"componentType":5126,"count":239,"max":[0.9907034635543823,0.9935708045959473],"min":[0.009296580217778683,0.006429340690374374],"type":"VEC2"},{"bufferView":0,"byteOffset":181164,"componentType":5125,"count":939,"type":"SCALAR"},{"bufferView":2,"byteOffset":312672,"componentType":5126,"count":66,"max":[0.008188508450984955,0.4702514708042145,0.04458717256784439],"min":[-0.3013019263744354,0.39271464943885803,-2.2165477275848389e-7],"type":"VEC3"},{"bufferView":2,"byteOffset":313464,"componentType":5126,"count":66,"max":[6.583518086245022e-8,1.2857205966554375e-8,1],"min":[-2.3938820760752155e-13,0,-1],"type":"VEC3"},{"bufferView":1,"byteOffset":104224,"componentType":5126,"count":66,"max":[0,0],"min":[0,0],"type":"VEC2"},{"bufferView":0,"byteOffset":184920,"componentType":5125,"count":186,"type":"SCALAR"},{"bufferView":2,"byteOffset":314256,"componentType":5126,"count":477,"max":[-0.25009140372276306,0.4439251720905304,0.04460104554891586],"min":[-0.3020225465297699,0.39199402928352356,0.043141089379787445],"type":"VEC3"},{"bufferView":2,"byteOffset":319980,"componentType":5126,"count":477,"max":[1,1,0.9958080649375916],"min":[-1,-1,-0.000017353648217977025],"type":"VEC3"},{"bufferView":1,"byteOffset":104752,"componentType":5126,"count":477,"max":[0,0],"min":[0,0],"type":"VEC2"},{"bufferView":0,"byteOffset":185664,"componentType":5125,"count":2268,"type":"SCALAR"},{"bufferView":2,"byteOffset":325704,"componentType":5126,"count":64,"max":[-0.25092509388923645,0.443091481924057,0.04441879317164421],"min":[-0.3011888861656189,0.39282768964767456,0.044356875121593475],"type":"VEC3"},{"bufferView":2,"byteOffset":326472,"componentType":5126,"count":64,"max":[0.003960976377129555,0.003960996866226196,0.9999978542327881],"min":[-0.003960791509598494,-0.00396093912422657,0.9999921917915344],"type":"VEC3"},{"bufferView":1,"byteOffset":108568,"componentType":5126,"count":64,"max":[0,0],"min":[0,0],"type":"VEC2"},{"bufferView":0,"byteOffset":194736,"componentType":5125,"count":192,"type":"SCALAR"},{"bufferView":2,"byteOffset":327240,"componentType":5126,"count":210,"max":[0.017622604966163635,-0.5014253258705139,0.018531328067183495],"min":[-0.01795440912246704,-0.5039759874343872,0.01542672235518694],"type":"VEC3"},{"bufferView":2,"byteOffset":329760,"componentType":5126,"count":210,"max":[1,1,0.990494966506958],"min":[-1,-0.9946556091308594,-0.990494966506958],"type":"VEC3"},{"bufferView":1,"byteOffset":109080,"componentType":5126,"count":210,"max":[0,0],"min":[0,0],"type":"VEC2"},{"bufferView":0,"byteOffset":195504,"componentType":5125,"count":1068,"type":"SCALAR"},{"bufferView":2,"byteOffset":332280,"componentType":5126,"count":74,"max":[0.29807019233703613,0.4383391737937927,8.435815175289463e-7],"min":[-0.2980462908744812,-0.46247875690460205,-2.218533410314194e-7],"type":"VEC3"},{"bufferView":2,"byteOffset":333168,"componentType":5126,"count":74,"max":[0.00004801607065019198,0.000075112322519999,-1],"min":[-0.00005688420787919313,-0.00008240365423262119,-1],"type":"VEC3"},{"bufferView":1,"byteOffset":110760,"componentType":5126,"count":74,"max":[0.9989877939224243,1.0012589693069458],"min":[0.0010121464729309082,-0.0012585818767547607],"type":"VEC2"},{"bufferView":0,"byteOffset":199776,"componentType":5125,"count":216,"type":"SCALAR"},{"bufferView":2,"byteOffset":334056,"componentType":5126,"count":546,"max":[0.0051657408475875854,0.46722838282585144,0.04388563334941864],"min":[-0.282043993473053,0.4119725823402405,0.00007289089262485504],"type":"VEC3"},{"bufferView":2,"byteOffset":340608,"componentType":5126,"count":546,"max":[0.979235827922821,0.9792332053184509,1],"min":[-0.9792366027832031,-0.9792457222938538,-1],"type":"VEC3"},{"bufferView":1,"byteOffset":111352,"componentType":5126,"count":546,"max":[0.960699737071991,1.0006717443466187],"min":[-0.0006443386082537472,-0.0011674761772155762],"type":"VEC2"},{"bufferView":0,"byteOffset":200640,"componentType":5125,"count":2970,"type":"SCALAR"},{"bufferView":2,"byteOffset":347160,"componentType":5126,"count":43697,"max":[0.06675436347723007,0.08624298870563507,0.035857684910297394],"min":[-0.06615852564573288,-0.38922250270843506,0.035108499228954315],"type":"VEC3"},{"bufferView":2,"byteOffset":871524,"componentType":5126,"count":43697,"max":[1,1,1],"min":[-1,-1,-1],"type":"VEC3"},{"bufferView":1,"byteOffset":115720,"componentType":5126,"count":43697,"max":[1,0],"min":[0,0],"type":"VEC2"},{"bufferView":0,"byteOffset":212520,"componentType":5125,"count":65256,"type":"SCALAR"}],"asset":{"extras":{"author":"DatSketch (https://sketchfab.com/DatSketch)","license":"CC-BY-4.0 (http://creativecommons.org/licenses/by/4.0/)","source":"https://sketchfab.com/3d-models/ipad-mini-6-2021-f363c2b1c74a462588db184bd4fb024e","title":"IPad Mini 6 2021"},"generator":"Sketchfab-12.15.0","version":"2.0"},"bufferViews":[{"buffer":0,"byteLength":473544,"name":"floatBufferViews","target":34963},{"buffer":0,"byteLength":465296,"byteOffset":473544,"byteStride":8,"name":"floatBufferViews","target":34962},{"buffer":0,"byteLength":1395888,"byteOffset":938840,"byteStride":12,"name":"floatBufferViews","target":34962}],"buffers":[{"byteLength":2334728,"uri":"data:application/octet-stream;base64,"}],"images":[{"uri":"data:application/octet-stream;base64,"},{"uri":"data:application/octet-stream;base64,"},{"uri":"data:application/octet-stream;base64,"}],"materials":[{"doubleSided":true,"name":"BaseColor","pbrMetallicRoughness":{"baseColorFactor":[0.47932,0.467784,0.603827,1],"metallicFactor":0.36044026533875684,"roughnessFactor":0.2261079595546881}},{"doubleSided":true,"name":"BaseColorMatte","pbrMetallicRoughness":{"baseColorFactor":[0.64493,0.629271,0.814042,1]}},{"doubleSided":true,"name":"CamGray","pbrMetallicRoughness":{"baseColorFactor":[0,0,0,1],"metallicFactor":0.5002842480953857,"roughnessFactor":0.4814752324146192}},{"doubleSided":true,"name":"SpeakerMic","pbrMetallicRoughness":{"baseColorTexture":{"index":0},"roughnessFactor":0.5969985225179213}},{"doubleSided":true,"name":"Flash","pbrMetallicRoughness":{"baseColorFactor":[0.8,0.7871,0.520608,1],"roughnessFactor":0}},{"doubleSided":true,"name":"Bezel","pbrMetallicRoughness":{"baseColorFactor":[0.009615739678686761,0.009615739678686761,0.009615739678686761,1],"metallicFactor":0.7252506551386584,"roughnessFactor":0}},{"alphaMode":"BLEND","doubleSided":true,"name":"CamGlass","pbrMetallicRoughness":{"baseColorFactor":[0.0290997,0.0290997,0.0290997,0.5185247675853808],"roughnessFactor":0}},{"doubleSided":true,"name":"Cam1","pbrMetallicRoughness":{"baseColorFactor":[0.12371,0.12371,0.12371,1],"roughnessFactor":0.23218813271801975}},{"doubleSided":true,"name":"CamBlack","pbrMetallicRoughness":{"baseColorFactor":[0,0,0,1]}},{"doubleSided":true,"name":"Port","pbrMetallicRoughness":{"baseColorFactor":[0.0522181,0.0522181,0.0522181,1],"roughnessFactor":0.9883236778744118}},{"doubleSided":true,"name":"Screen","pbrMetallicRoughness":{"baseColorTexture":{"index":1},"metallicFactor":0.5,"roughnessFactor":0}},{"doubleSided":true,"name":"Lens","pbrMetallicRoughness":{"baseColorTexture":{"index":2},"roughnessFactor":0}},{"doubleSided":true,"name":"BaseColorLogo","pbrMetallicRoughness":{"baseColorFactor":[0.47932,0.467784,0.603827,1],"roughnessFactor":0}}],"meshes":[{"name":"iPad Mini_BaseColor_0","primitives":[{"attributes":{"NORMAL":1,"POSITION":0,"TEXCOORD_0":2},"indices":3,"material":0,"mode":4}]},{"name":"iPad Mini_BaseColorMatte_0","primitives":[{"attributes":{"NORMAL":5,"POSITION":4,"TEXCOORD_0":6},"indices":7,"material":1,"mode":4}]},{"name":"iPad Mini_CamGray_0","primitives":[{"attributes":{"NORMAL":9,"POSITION":8,"TEXCOORD_0":10},"indices":11,"material":2,"mode":4}]},{"name":"iPad Mini_Speaker/Mic_0","primitives":[{"attributes":{"NORMAL":13,"POSITION":12,"TEXCOORD_0":14},"indices":15,"material":3,"mode":4}]},{"name":"iPad Mini_Flash_0","primitives":[{"attributes":{"NORMAL":17,"POSITION":16,"TEXCOORD_0":18},"indices":19,"material":4,"mode":4}]},{"name":"iPad Mini_Bezel_0","primitives":[{"attributes":{"NORMAL":21,"POSITION":20,"TEXCOORD_0":22},"indices":23,"material":5,"mode":4}]},{"name":"iPad Mini_CamGlass_0","primitives":[{"attributes":{"NORMAL":25,"POSITION":24,"TEXCOORD_0":26},"indices":27,"material":6,"mode":4}]},{"name":"iPad Mini_Cam1_0","primitives":[{"attributes":{"NORMAL":29,"POSITION":28,"TEXCOORD_0":30},"indices":31,"material":7,"mode":4}]},{"name":"iPad Mini_CamBlack_0","primitives":[{"attributes":{"NORMAL":33,"POSITION":32,"TEXCOORD_0":34},"indices":35,"material":8,"mode":4}]},{"name":"iPad Mini_Port_0","primitives":[{"attributes":{"NORMAL":37,"POSITION":36,"TEXCOORD_0":38},"indices":39,"material":9,"mode":4}]},{"name":"iPad Mini_Screen_0","primitives":[{"attributes":{"NORMAL":41,"POSITION":40,"TEXCOORD_0":42},"indices":43,"material":10,"mode":4}]},{"name":"iPad Mini_Lens_0","primitives":[{"attributes":{"NORMAL":45,"POSITION":44,"TEXCOORD_0":46},"indices":47,"material":11,"mode":4}]},{"name":"iPad Mini_BaseColorLogo_0","primitives":[{"attributes":{"NORMAL":49,"POSITION":48,"TEXCOORD_0":50},"indices":51,"material":12,"mode":4}]}],"nodes":[{"children":[1],"matrix":[1,0,0,0,0,1,4.440892098500626e-16,0,0,-4.440892098500626e-16,1,0,0,0.03277076408267021,-0.01183000020682811,1],"name":"Sketchfab_model"},{"children":[2],"matrix":[0.009999999776482582,0,0,0,0,0,0.009999999776482582,0,0,-0.009999999776482582,0,0,0,0,0,1],"name":"ipadmini6.fbx"},{"children":[3],"name":"RootNode"},{"children":[4,5,6,7,8,9,10,11,12,13,14,15,16],"matrix":[100,0,0,0,0,-0.00001629206793918314,-99.99999999999868,0,0,99.99999999999868,-0.00001629206793918314,0,0,-5.4798299231606507e-8,0,1],"name":"iPad Mini"},{"mesh":0,"name":"iPad Mini_BaseColor_0"},{"mesh":1,"name":"iPad Mini_BaseColorMatte_0"},{"mesh":2,"name":"iPad Mini_CamGray_0"},{"mesh":3,"name":"iPad Mini_Speaker/Mic_0"},{"mesh":4,"name":"iPad Mini_Flash_0"},{"mesh":5,"name":"iPad Mini_Bezel_0"},{"mesh":6,"name":"iPad Mini_CamGlass_0"},{"mesh":7,"name":"iPad Mini_Cam1_0"},{"mesh":8,"name":"iPad Mini_CamBlack_0"},{"mesh":9,"name":"iPad Mini_Port_0"},{"mesh":10,"name":"iPad Mini_Screen_0"},{"mesh":11,"name":"iPad Mini_Lens_0"},{"mesh":12,"name":"iPad Mini_BaseColorLogo_0"}],"samplers":[{"magFilter":9729,"minFilter":9987,"wrapS":10497,"wrapT":10497},{"magFilter":9729,"minFilter":9987,"wrapS":33071,"wrapT":33071}],"scene":0,"scenes":[{"name":"Sketchfab_Scene","nodes":[0]}],"textures":[{"sampler":0,"source":0},{"sampler":1,"source":1},{"sampler":0,"source":2}]}